# xmcd
#
# Track frame offsets: 
#        150
#        17582
#        39700
#        52607
#        64058
#        75192
#        89431
#        110919
#        134513
#        149827
#        159811
#        171270
#        186184
#        204646
#        221899
#
# Disc length: 3186 seconds
#
# Revision: 0
# Processed by: cddbd v1.5.2PL0 Copyright (c) Steve Scherf et al.
# Submitted via: ExactAudioCopy v0.99pb4
#
DISCID=d60c700f
DTITLE=Various Artist - Simply Funk - Sophisticated Phunk
DYEAR=2007
DGENRE=Funk
TTITLE0=Bobby Womack - Across 110th Street
TTITLE1=Leroy Hutson - Blackberry Jam
TTITLE2=Five Stairsteps - Madame Mary
TTITLE3=Natural Four - Nothing Beats A Failure (But A Try)
TTITLE4=Eddie Bo and Inez Cheatham - Lover And A Friend
TTITLE5=Major Lance - Stay Away From Me (I Love You To Much)
TTITLE6=The Staple Singers - Funky Love
TTITLE7=Curtis Mayfield - (Don`t Worry) If There`s A Hell Below We`re 
TTITLE7=All Gonna Go (live)
TTITLE8=The Impressions - Something`s Mighty Mighty Wrong
TTITLE9=Bobby Womack and JJ Johnson - Harlem Clavinette
TTITLE10=Bobby Franklin`s Insanity - Bring It On Down To Me
TTITLE11=The Jones Girls - Will You Be There
TTITLE12=Linda Clifford - You Can Do It
TTITLE13=Aaron Neville - Make Me Strong
TTITLE14=Leroy Hutson - You`re A Winer
EXTD=
EXTT0=
EXTT1=
EXTT2=
EXTT3=
EXTT4=
EXTT5=
EXTT6=
EXTT7=
EXTT8=
EXTT9=
EXTT10=
EXTT11=
EXTT12=
EXTT13=
EXTT14=
PLAYORDER=
